<svg width="64" height="57" viewBox="0 0 64 57" fill="none" xmlns="http://www.w3.org/2000/svg">
<ellipse cx="32" cy="28.5" rx="32" ry="28.5" fill="#0F1A24"/>
<path d="M14.363 39V36.216H17.089V21.484H14.363V18.7H24.658C25.876 18.7 26.9393 18.9127 27.848 19.338C28.7567 19.744 29.4623 20.3337 29.965 21.107C30.487 21.861 30.748 22.76 30.748 23.804V24.094C30.748 25.022 30.574 25.7857 30.226 26.385C29.878 26.9843 29.4527 27.4483 28.95 27.777C28.4667 28.1057 28.0027 28.3377 27.558 28.473V28.937C28.0027 29.053 28.4763 29.285 28.979 29.633C29.501 29.9617 29.936 30.4257 30.284 31.025C30.6513 31.6243 30.835 32.4073 30.835 33.374V33.664C30.835 34.7853 30.574 35.7423 30.052 36.535C29.53 37.3277 28.805 37.9367 27.877 38.362C26.9683 38.7873 25.9147 39 24.716 39H14.363ZM20.25 36.158H24.339C25.383 36.158 26.2047 35.9067 26.804 35.404C27.4033 34.9013 27.703 34.2053 27.703 33.316V33.055C27.703 32.1657 27.4033 31.4697 26.804 30.967C26.224 30.4643 25.4023 30.213 24.339 30.213H20.25V36.158ZM20.25 27.342H24.339C25.325 27.342 26.1177 27.1003 26.717 26.617C27.3163 26.1143 27.616 25.4377 27.616 24.587V24.297C27.616 23.4463 27.3163 22.7793 26.717 22.296C26.137 21.7933 25.3443 21.542 24.339 21.542H20.25V27.342ZM39.9145 39.406C37.8845 39.406 36.2702 38.8453 35.0715 37.724C33.8728 36.5833 33.2735 34.9787 33.2735 32.91V31.17H36.4055V32.91C36.4055 33.9927 36.6955 34.8627 37.2755 35.52C37.8748 36.158 38.7352 36.477 39.8565 36.477C40.9392 36.477 41.7415 36.158 42.2635 35.52C42.7855 34.882 43.0465 34.012 43.0465 32.91V21.542H39.5085V18.7H48.4405V21.542H46.1785V32.91C46.1785 35.0173 45.6275 36.6317 44.5255 37.753C43.4428 38.855 41.9058 39.406 39.9145 39.406Z" fill="white"/>
</svg>
